# xmcd CD database file
#
# Track frame offsets:
#	150
#	16065
#	30395
#	47595
#	63604
#	82102
#	96209
#	109076
#	125663
#	140829
#	153456
#	170732
#
# Disc length: 2375 seconds
#
# Revision: 1
# Processed by: cddbd v1.5.2PL0 Copyright (c) Steve Scherf et al.
# Submitted via: CDex 1.70beta2
#
DISCID=a309450c
DTITLE=Sergio Pommerening - Musicas Para Consultorio - Pianos
DYEAR=2007
DGENRE=New Age
TTITLE0=Spiritual Water Fountain
TTITLE1=Moonlight Soul
TTITLE2=Moving Into Space
TTITLE3=B Major
TTITLE4=Piano From The Heart
TTITLE5=Seconds Into Lifetime
TTITLE6=Seven Lives
TTITLE7=Inner Mind
TTITLE8=Whispers
TTITLE9=Crystals
TTITLE10=Tough Of Magic
TTITLE11=Purity
EXTD=YEAR: 2007
EXTT0=
EXTT1=
EXTT2=
EXTT3=
EXTT4=
EXTT5=
EXTT6=
EXTT7=
EXTT8=
EXTT9=
EXTT10=
EXTT11=
PLAYORDER=
